<svg xmlns="http://www.w3.org/2000/svg" viewBox="-180 -180 360 360">
  <rect x="-180" y="-180" width="360" height="360" rx="72" fill="#f3ecdf"/>
  <g transform="rotate(0) translate(0 -10)"><path d="M 0 0 C -36 -28 -44 -78 -22 -118 C -10 -140 10 -140 22 -118 C 44 -78 36 -28 0 0 Z" fill="#c2410c"/></g>
  <g transform="rotate(72) translate(0 -10)"><path d="M 0 0 C -36 -28 -44 -78 -22 -118 C -10 -140 10 -140 22 -118 C 44 -78 36 -28 0 0 Z" fill="#c2410c"/></g>
  <g transform="rotate(144) translate(0 -10)"><path d="M 0 0 C -36 -28 -44 -78 -22 -118 C -10 -140 10 -140 22 -118 C 44 -78 36 -28 0 0 Z" fill="#c2410c"/></g>
  <g transform="rotate(216) translate(0 -10)"><path d="M 0 0 C -36 -28 -44 -78 -22 -118 C -10 -140 10 -140 22 -118 C 44 -78 36 -28 0 0 Z" fill="#c2410c"/></g>
  <g transform="rotate(288) translate(0 -10)"><path d="M 0 0 C -36 -28 -44 -78 -22 -118 C -10 -140 10 -140 22 -118 C 44 -78 36 -28 0 0 Z" fill="#c2410c"/></g>
  <circle cx="0" cy="0" r="22" fill="#fdfaf2"/>
  <circle cx="0" cy="0" r="10" fill="#b8841f"/>
</svg>
