<svg xmlns="http://www.w3.org/2000/svg" viewBox="0 0 192 192">
  <rect width="192" height="192" rx="40" fill="#1e3a8a"/>
  <g transform="translate(96,96)">
    <g transform="rotate(0) translate(0,-10)"><path d="M 0 0 C -22 -17 -27 -48 -13 -72 C -6 -85 6 -85 13 -72 C 27 -48 22 -17 0 0 Z" fill="#c2410c"/></g>
    <g transform="rotate(72) translate(0,-10)"><path d="M 0 0 C -22 -17 -27 -48 -13 -72 C -6 -85 6 -85 13 -72 C 27 -48 22 -17 0 0 Z" fill="#c2410c"/></g>
    <g transform="rotate(144) translate(0,-10)"><path d="M 0 0 C -22 -17 -27 -48 -13 -72 C -6 -85 6 -85 13 -72 C 27 -48 22 -17 0 0 Z" fill="#c2410c"/></g>
    <g transform="rotate(216) translate(0,-10)"><path d="M 0 0 C -22 -17 -27 -48 -13 -72 C -6 -85 6 -85 13 -72 C 27 -48 22 -17 0 0 Z" fill="#c2410c"/></g>
    <g transform="rotate(288) translate(0,-10)"><path d="M 0 0 C -22 -17 -27 -48 -13 -72 C -6 -85 6 -85 13 -72 C 27 -48 22 -17 0 0 Z" fill="#c2410c"/></g>
    <circle cx="0" cy="0" r="11" fill="#f3ecdf"/>
    <circle cx="0" cy="0" r="5" fill="#b8841f"/>
  </g>
</svg>
